<svg xmlns="http://www.w3.org/2000/svg" width="41" height="41" viewBox="0 0 41 41" fill="none"><path fill-rule="evenodd" clip-rule="evenodd" d="M14.3511 4.38685C13.5136 4.38685 12.7104 4.69056 12.1182 5.23116C11.526 5.77176 11.1933 6.50497 11.1933 7.26949V13.9956H25.9299V7.26949C25.9299 5.4856 26.7062 3.77478 28.088 2.51338C29.4698 1.25198 31.344 0.543335 33.2982 0.543335C35.2524 0.543335 37.1266 1.25198 38.5084 2.51338C39.8902 3.77478 40.6665 5.4856 40.6665 7.26949C40.6659 7.75931 40.4604 8.23043 40.0921 8.5866C39.7237 8.94277 39.2203 9.15711 38.6846 9.18581C38.149 9.21452 37.6215 9.05543 37.2101 8.74105C36.7986 8.42667 36.5342 7.98073 36.4708 7.49434L36.456 7.26949C36.456 6.50497 36.1233 5.77176 35.5311 5.23116C34.9389 4.69056 34.1357 4.38685 33.2982 4.38685C32.4607 4.38685 31.6575 4.69056 31.0653 5.23116C30.4731 5.77176 30.1404 6.50497 30.1404 7.26949V23.6044C30.1389 23.8825 30.0793 24.1406 29.9614 24.3789C30.3253 24.5597 30.7395 24.6384 31.1522 24.6052C31.5649 24.5721 31.9577 24.4285 32.2814 24.1925L35.1403 22.1035C35.3562 21.9458 35.604 21.8285 35.8696 21.7582C36.1352 21.6879 36.4134 21.666 36.6883 21.6938C36.9631 21.7217 37.2293 21.7987 37.4715 21.9204C37.7138 22.0421 37.9274 22.2062 38.1002 22.4033C38.273 22.6004 38.4016 22.8267 38.4786 23.0691C38.5556 23.3116 38.5795 23.5655 38.549 23.8164C38.5185 24.0673 38.4342 24.3103 38.3009 24.5314C38.1675 24.7526 37.9877 24.9476 37.7718 25.1053L34.9129 27.1924C33.8664 27.9567 32.5807 28.3974 31.2417 28.4506C29.9027 28.5038 28.5799 28.1668 27.4646 27.4883L26.2709 26.7619C25.8991 26.5353 25.4579 26.4227 25.0113 26.4403C24.5647 26.458 24.1358 26.6049 23.7868 26.8599L23.5594 27.0271C22.4396 27.8448 21.0482 28.2903 19.6142 28.2903C18.1802 28.2903 16.7888 27.8448 15.669 27.0271L15.4395 26.8599C15.0903 26.6052 14.6613 26.4586 14.2146 26.4413C13.768 26.424 13.327 26.537 12.9554 26.7638L11.7659 27.4883C10.6504 28.1672 9.32717 28.5045 7.98774 28.4513C6.6483 28.3981 5.36216 27.9572 4.31549 27.1924L1.45659 25.1053C1.02052 24.7868 0.740945 24.3231 0.679355 23.8164C0.617765 23.3097 0.77921 22.8014 1.12817 22.4033C1.47714 22.0053 1.98503 21.7501 2.54013 21.6938C3.09523 21.6376 3.65206 21.785 4.08813 22.1035L6.98282 24.2194V7.26949C6.98282 6.3862 7.17341 5.51156 7.5437 4.6955C7.91399 3.87945 8.45674 3.13796 9.14095 2.51338C9.82516 1.8888 10.6374 1.39335 11.5314 1.05533C12.4254 0.717312 13.3835 0.543335 14.3511 0.543335C15.3187 0.543335 16.2769 0.717312 17.1709 1.05533C18.0648 1.39335 18.8771 1.8888 19.5613 2.51338C20.2455 3.13796 20.7883 3.87945 21.1586 4.6955C21.5288 5.51156 21.7194 6.3862 21.7194 7.26949C21.7188 7.75931 21.5134 8.23043 21.145 8.5866C20.7767 8.94277 20.2732 9.15711 19.7376 9.18581C19.2019 9.21452 18.6745 9.05543 18.263 8.74105C17.8515 8.42667 17.5871 7.98073 17.5237 7.49434L17.509 7.26949C17.509 6.50497 17.1763 5.77176 16.5841 5.23116C15.9918 4.69056 15.1886 4.38685 14.3511 4.38685ZM25.9299 22.6455V17.8392H11.1933V23.2547C12.2802 22.7347 13.5095 22.5151 14.7309 22.6226C15.9523 22.7301 17.113 23.1601 18.0711 23.86L18.2984 24.0272C18.6718 24.3001 19.1359 24.4488 19.6142 24.4488C20.0925 24.4488 20.5566 24.3001 20.93 24.0272L21.1573 23.86C21.8219 23.374 22.5873 23.0157 23.4075 22.8067C24.2276 22.5976 25.0856 22.5422 25.9299 22.6436V22.6455ZM32.2814 31.8795C31.9321 32.1342 31.5031 32.2808 31.0565 32.2981C30.6099 32.3154 30.1688 32.2024 29.7972 31.9756L28.6077 31.2511C27.4923 30.5722 26.169 30.2349 24.8296 30.2881C23.4901 30.3413 22.204 30.7823 21.1573 31.5471L20.93 31.7143C20.5566 31.9872 20.0925 32.1358 19.6142 32.1358C19.1359 32.1358 18.6718 31.9872 18.2984 31.7143L18.0711 31.5471C17.0246 30.7827 15.7388 30.342 14.3999 30.2888C13.0609 30.2356 11.738 30.5726 10.6228 31.2511L9.4291 31.9775C9.05727 32.2041 8.61609 32.3167 8.16947 32.2991C7.72284 32.2815 7.29395 32.1345 6.94492 31.8795L4.08813 29.7906C3.65206 29.472 3.09523 29.3247 2.54013 29.3809C1.98503 29.4371 1.47714 29.6923 1.12817 30.0904C0.77921 30.4884 0.617765 30.9967 0.679355 31.5035C0.740945 32.0102 1.02052 32.4738 1.45659 32.7924L4.31549 34.8794C5.36216 35.6442 6.6483 36.0851 7.98774 36.1383C9.32717 36.1916 10.6504 35.8543 11.7659 35.1753L12.9575 34.4489C13.3293 34.2224 13.7705 34.1098 14.2171 34.1274C14.6637 34.145 15.0926 34.2919 15.4416 34.5469L15.669 34.7141C16.7888 35.5319 18.1802 35.9773 19.6142 35.9773C21.0482 35.9773 22.4396 35.5319 23.5594 34.7141L23.7889 34.5469C24.1381 34.2922 24.5671 34.1456 25.0138 34.1284C25.4604 34.1111 25.9014 34.224 26.273 34.4508L27.4646 35.1753C28.5799 35.8538 29.9027 36.1908 31.2417 36.1376C32.5807 36.0844 33.8664 35.6438 34.9129 34.8794L37.7718 32.7924C37.9877 32.6346 38.1675 32.4396 38.3009 32.2185C38.4342 31.9973 38.5185 31.7544 38.549 31.5035C38.5795 31.2526 38.5556 30.9986 38.4786 30.7562C38.4016 30.5137 38.273 30.2875 38.1002 30.0904C37.9274 29.8933 37.7138 29.7292 37.4715 29.6074C37.2293 29.4857 36.9631 29.4087 36.6883 29.3809C36.4134 29.353 36.1352 29.3749 35.8696 29.4452C35.604 29.5155 35.3562 29.6329 35.1403 29.7906L32.2814 31.8795Z" fill="#2C2C2C"></path></svg>