<svg xmlns="http://www.w3.org/2000/svg" width="16" height="16" viewBox="0 0 16 16" fill="none"><g clip-path="url(#clip0_477_1058)"><path d="M5.916 13.284C6.01926 13.3314 6.1356 13.3423 6.24585 13.3147C6.35609 13.2872 6.45367 13.2229 6.5225 13.1325L6.7 12.9C6.79315 12.7758 6.91393 12.675 7.05279 12.6056C7.19164 12.5361 7.34475 12.5 7.5 12.5H9C9.26522 12.5 9.51957 12.6054 9.70711 12.7929C9.89464 12.9804 10 13.2348 10 13.5V15C10 15.2652 9.89464 15.5196 9.70711 15.7071C9.51957 15.8946 9.26522 16 9 16C6.61305 16 4.32387 15.0518 2.63604 13.364C0.948212 11.6761 0 9.38695 0 7C0 6.73478 0.105357 6.48043 0.292893 6.29289C0.48043 6.10536 0.734784 6 1 6H2.5C2.76522 6 3.01957 6.10536 3.20711 6.29289C3.39464 6.48043 3.5 6.73478 3.5 7V8.5C3.5 8.65525 3.46386 8.80836 3.39443 8.94721C3.325 9.08607 3.2242 9.20685 3.1 9.3L2.866 9.4755C2.77421 9.54559 2.70951 9.64529 2.6829 9.75768C2.65628 9.87006 2.66939 9.98819 2.72 10.092C3.40334 11.4799 4.52721 12.6024 5.916 13.284Z" fill="white"></path><path d="M8.37988 2.01299C9.17445 1.43405 10.1497 1.15823 11.1299 1.23467C12.1099 1.31113 13.0304 1.73497 13.7256 2.42999C14.4207 3.12506 14.8453 4.0457 14.9219 5.02569C14.9983 6.00586 14.7215 6.98207 14.1426 7.77667C13.5636 8.57098 12.7199 9.13218 11.7637 9.35967C10.8073 9.58717 9.80145 9.46556 8.92676 9.0169L6.22266 9.93389L7.13867 7.22979C6.68997 6.35504 6.56836 5.34832 6.7959 4.3919C7.02349 3.43557 7.58538 2.5919 8.37988 2.01299ZM8.97266 4.8919C8.71953 4.8919 8.51367 5.09775 8.51367 5.35088C8.51384 5.60388 8.71963 5.80889 8.97266 5.80889H8.97656C9.22959 5.80889 9.43441 5.60388 9.43457 5.35088C9.43457 5.09775 9.22969 4.8919 8.97656 4.8919H8.97266ZM10.8057 4.8919C10.5525 4.8919 10.3477 5.09775 10.3477 5.35088C10.3478 5.60388 10.5526 5.80889 10.8057 5.80889H10.8096C11.0626 5.80889 11.2684 5.60388 11.2686 5.35088C11.2686 5.09775 11.0627 4.8919 10.8096 4.8919H10.8057ZM12.6387 4.8919C12.3856 4.89202 12.1807 5.09783 12.1807 5.35088C12.1808 5.6038 12.3857 5.80877 12.6387 5.80889H12.6436C12.8965 5.80879 13.1014 5.60381 13.1016 5.35088C13.1016 5.09782 12.8966 4.892 12.6436 4.8919H12.6387Z" fill="white"></path></g><defs><clipPath id="clip0_477_1058"><rect width="16" height="16" fill="white"></rect></clipPath></defs></svg>