<svg xmlns="http://www.w3.org/2000/svg" width="24" height="24" viewBox="0 0 24 24" fill="none"><path d="M11.7321 8C13.7321 5 9.73214 5 11.7321 2" stroke="#565F6D" stroke-width="2" stroke-linecap="round" stroke-linejoin="round"></path><path d="M6.57735 8C8.57735 5 4.57735 5 6.57735 2" stroke="#565F6D" stroke-width="2" stroke-linecap="round" stroke-linejoin="round"></path><path d="M16.8869 8C18.8869 5 14.8869 5 16.8869 2" stroke="#565F6D" stroke-width="2" stroke-linecap="round" stroke-linejoin="round"></path><path d="M10 16V12" stroke="#565F6D" stroke-width="2" stroke-linecap="round" stroke-linejoin="round"></path><path d="M6 16V12" stroke="#565F6D" stroke-width="2" stroke-linecap="round" stroke-linejoin="round"></path><path d="M14 16V12" stroke="#565F6D" stroke-width="2" stroke-linecap="round" stroke-linejoin="round"></path><path d="M18 16V12" stroke="#565F6D" stroke-width="2" stroke-linecap="round" stroke-linejoin="round"></path><path d="M20 6C20.5304 6 21.0391 6.21071 21.4142 6.58579C21.7893 6.96086 22 7.46957 22 8V18C22 18.5304 21.7893 19.0391 21.4142 19.4142C21.0391 19.7893 20.5304 20 20 20H4C3.46957 20 2.96086 19.7893 2.58579 19.4142C2.21071 19.0391 2 18.5304 2 18V8C2 7.46957 2.21071 6.96086 2.58579 6.58579C2.96086 6.21071 3.46957 6 4 6" stroke="#565F6D" stroke-width="2" stroke-linecap="round" stroke-linejoin="round"></path><path d="M5 20V22" stroke="#565F6D" stroke-width="2" stroke-linecap="round" stroke-linejoin="round"></path><path d="M19 20V22" stroke="#565F6D" stroke-width="2" stroke-linecap="round" stroke-linejoin="round"></path></svg>