<svg xmlns="http://www.w3.org/2000/svg" width="41" height="41" viewBox="0 0 41 41" fill="none"><path d="M7.53133 36.9117C6.61466 36.9117 5.83022 36.5856 5.178 35.9334C4.52578 35.2812 4.19911 34.4962 4.198 33.5784V6.9117C4.198 5.99504 4.52466 5.21059 5.178 4.55837C5.83133 3.90615 6.61578 3.57948 7.53133 3.57837H34.198C35.1147 3.57837 35.8997 3.90504 36.553 4.55837C37.2063 5.2117 37.5324 5.99615 37.5313 6.9117V33.5784C37.5313 34.495 37.2052 35.28 36.553 35.9334C35.9008 36.5867 35.1158 36.9128 34.198 36.9117H7.53133ZM7.53133 26.9117V33.5784H10.8647V30.245H10.0313C9.80911 30.245 9.61467 30.1617 9.448 29.995C9.28133 29.8284 9.198 29.6339 9.198 29.4117V26.9117H7.53133ZM7.53133 23.5784H9.198C9.198 23.1061 9.358 22.7106 9.678 22.3917C9.998 22.0728 10.3936 21.9128 10.8647 21.9117V17.745C10.8647 17.0506 11.108 16.4606 11.5947 15.975C12.0813 15.4895 12.6713 15.2461 13.3647 15.245H16.698C17.3924 15.245 17.983 15.4884 18.4697 15.975C18.9563 16.4617 19.1991 17.0517 19.198 17.745V21.9117C19.6702 21.9117 20.0663 22.0717 20.3863 22.3917C20.7063 22.7117 20.8658 23.1073 20.8647 23.5784H34.198V6.9117H7.53133V23.5784ZM15.0313 13.5784C14.3369 13.5784 13.7469 13.3356 13.2613 12.85C12.7758 12.3645 12.5324 11.7739 12.5313 11.0784C12.5302 10.3828 12.7736 9.79281 13.2613 9.30837C13.7491 8.82393 14.3391 8.58059 15.0313 8.57837C15.7236 8.57615 16.3141 8.81948 16.803 9.30837C17.2919 9.79726 17.5347 10.3873 17.5313 11.0784C17.528 11.7695 17.2852 12.36 16.803 12.85C16.3208 13.34 15.7302 13.5828 15.0313 13.5784ZM14.198 33.5784H15.8647V30.245H14.198V33.5784ZM19.198 33.5784H34.198V26.9117H20.8647V29.4117C20.8647 29.6339 20.7813 29.8284 20.6147 29.995C20.448 30.1617 20.2536 30.245 20.0313 30.245H19.198V33.5784ZM20.448 13.5367C20.0313 13.0089 19.7191 12.4811 19.5113 11.9534C19.3036 11.4256 19.1991 10.8839 19.198 10.3284V9.82837C19.2258 9.46726 19.3719 9.16837 19.6363 8.9317C19.9008 8.69504 20.2269 8.57726 20.6147 8.57837C20.9202 8.57837 21.1841 8.70337 21.4063 8.95337C21.6286 9.20337 21.7258 9.49504 21.698 9.82837V10.3284C21.698 10.6339 21.7608 10.9328 21.8863 11.225C22.0119 11.5173 22.2269 11.8295 22.5313 12.1617C23.0313 12.7728 23.3924 13.3495 23.6147 13.8917C23.8369 14.4339 23.948 14.9961 23.948 15.5784C23.948 15.9673 23.8091 16.2867 23.5313 16.5367C23.2536 16.7867 22.9202 16.9117 22.5313 16.9117C22.198 16.9117 21.9269 16.7795 21.718 16.515C21.5091 16.2506 21.4052 15.9384 21.4063 15.5784C21.4063 15.245 21.3441 14.9395 21.2197 14.6617C21.0952 14.3839 20.838 14.0089 20.448 13.5367ZM24.6147 13.5367C24.198 13.0089 23.8858 12.4811 23.678 11.9534C23.4702 11.4256 23.3658 10.8839 23.3647 10.3284V9.82837C23.3924 9.46726 23.5386 9.16893 23.803 8.93337C24.0674 8.69781 24.3936 8.57948 24.7813 8.57837C25.0869 8.57837 25.3508 8.70337 25.573 8.95337C25.7952 9.20337 25.8924 9.49504 25.8647 9.82837V10.3284C25.8647 10.6339 25.9274 10.9328 26.053 11.225C26.1786 11.5173 26.3936 11.8295 26.698 12.1617C27.198 12.7728 27.5591 13.3495 27.7813 13.8917C28.0036 14.4339 28.1147 14.9961 28.1147 15.5784C28.1147 15.9673 27.9758 16.2867 27.698 16.5367C27.4202 16.7867 27.0869 16.9117 26.698 16.9117C26.3647 16.9117 26.0936 16.7795 25.8847 16.515C25.6758 16.2506 25.5719 15.9384 25.573 15.5784C25.573 15.245 25.5108 14.9395 25.3863 14.6617C25.2619 14.3839 25.0047 14.0089 24.6147 13.5367ZM28.8647 13.5367C28.448 13.0089 28.1358 12.4811 27.928 11.9534C27.7202 11.4256 27.6158 10.8839 27.6147 10.3284V9.82837C27.6424 9.46726 27.7886 9.16893 28.053 8.93337C28.3174 8.69781 28.6436 8.57948 29.0313 8.57837C29.3369 8.57837 29.6008 8.70337 29.823 8.95337C30.0452 9.20337 30.1424 9.49504 30.1147 9.82837V10.3284C30.1147 10.6339 30.1774 10.9328 30.303 11.225C30.4286 11.5173 30.6436 11.8295 30.948 12.1617C31.448 12.7728 31.8091 13.3495 32.0313 13.8917C32.2536 14.4339 32.3647 14.9961 32.3647 15.5784C32.3647 15.9673 32.2258 16.2867 31.948 16.5367C31.6702 16.7867 31.3369 16.9117 30.948 16.9117C30.6147 16.9117 30.3436 16.7795 30.1347 16.515C29.9258 16.2506 29.8219 15.9384 29.823 15.5784C29.823 15.245 29.7608 14.9395 29.6363 14.6617C29.5119 14.3839 29.2547 14.0089 28.8647 13.5367Z" fill="#2C2C2C"></path></svg>