<svg xmlns="http://www.w3.org/2000/svg" width="41" height="41" viewBox="0 0 41 41" fill="none"><path d="M15.4473 35.804V24.1373C15.4473 23.2207 15.7739 22.4362 16.4273 21.784C17.0806 21.1318 17.865 20.8051 18.7806 20.804H28.7806C28.7806 19.8873 29.1073 19.1029 29.7606 18.4507C30.4139 17.7984 31.1984 17.4718 32.1139 17.4707C33.0295 17.4695 33.8145 17.7962 34.4689 18.4507C35.1234 19.1051 35.4495 19.8895 35.4473 20.804V35.804H27.1139V29.1373C27.1139 28.6651 26.9539 28.2695 26.6339 27.9507C26.3139 27.6318 25.9184 27.4718 25.4473 27.4707C24.9762 27.4695 24.5806 27.6295 24.2606 27.9507C23.9406 28.2718 23.7806 28.6673 23.7806 29.1373V35.804H15.4473ZM5.44727 35.804V16.429C5.44727 15.7345 5.64171 15.1029 6.0306 14.534C6.41949 13.9651 6.93338 13.5551 7.57227 13.304L24.8639 6.67899C25.4195 6.45677 25.9334 6.51232 26.4056 6.84565C26.8778 7.17899 27.1139 7.63732 27.1139 8.22065V17.4707H17.1139C15.725 17.4707 14.5445 17.9568 13.5723 18.929C12.6 19.9012 12.1139 21.0818 12.1139 22.4707V35.804H5.44727Z" fill="#2C2C2C"></path></svg>