<?xml version="1.0" encoding="UTF-8"?> <svg xmlns="http://www.w3.org/2000/svg" xmlns:xlink="http://www.w3.org/1999/xlink" width="40px" height="40px" viewBox="0 0 40 40" version="1.1"><g id="surface1"><path style="fill-rule:nonzero;fill:rgb(17.254902%,17.254902%,17.254902%);fill-opacity:1;stroke-width:1;stroke-linecap:butt;stroke-linejoin:miter;stroke:rgb(17.254902%,17.254902%,17.254902%);stroke-opacity:1;stroke-miterlimit:4;" d="M 19.999219 13.999219 L 19.999219 12 L 4.000781 12 L 4.000781 13.999219 C 4.000781 15.138281 4.582031 17.247656 6.745313 17.840625 C 7.115625 17.94375 7.532813 18 7.999219 18 L 16.000781 18 C 16.422656 18.004688 16.846875 17.950781 17.254688 17.840625 C 19.417969 17.247656 19.999219 15.138281 19.999219 13.999219 Z M 19.999219 13.999219 " transform="matrix(1.666667,0,0,1.666667,0,0)"></path><path style="fill:none;stroke-width:2;stroke-linecap:round;stroke-linejoin:round;stroke:rgb(17.254902%,17.254902%,17.254902%);stroke-opacity:1;stroke-miterlimit:4;" d="M 3 12 L 4.000781 12 M 19.999219 12 C 20.552344 12 21 11.552344 21 10.999219 L 21 7.000781 C 21 6 20.4 4.000781 18 4.000781 C 15.6 4.000781 15 6 15 7.000781 M 19.999219 12 L 19.999219 13.999219 C 19.999219 15.138281 19.417969 17.247656 17.254688 17.840625 M 19.999219 12 L 4.000781 12 M 4.000781 12 L 4.000781 13.999219 C 4.000781 15.138281 4.582031 17.247656 6.745313 17.840625 M 6 19.999219 L 6.745313 17.840625 M 6.745313 17.840625 C 7.115625 17.94375 7.532813 18 7.999219 18 L 16.000781 18 C 16.422656 18.004688 16.846875 17.950781 17.254688 17.840625 M 18 19.999219 L 17.254688 17.840625 M 15 7.000781 L 13.000781 7.000781 M 15 7.000781 L 16.999219 7.000781 " transform="matrix(1.666667,0,0,1.666667,0,0)"></path></g></svg> 