<svg xmlns="http://www.w3.org/2000/svg" width="40" height="40" viewBox="0 0 40 40" fill="none"><path d="M3.33325 31.6667V21.6667C3.33325 20.9167 3.48603 20.2362 3.79159 19.625C4.09714 19.0139 4.49992 18.4723 4.99992 18V13.3334C4.99992 11.9445 5.48603 10.7639 6.45825 9.79171C7.43047 8.81949 8.61103 8.33337 9.99992 8.33337H16.6666C17.3055 8.33337 17.9027 8.45171 18.4583 8.68837C19.0138 8.92504 19.5277 9.25115 19.9999 9.66671C20.4721 9.25004 20.986 8.92393 21.5416 8.68837C22.0971 8.45282 22.6944 8.33449 23.3333 8.33337H29.9999C31.3888 8.33337 32.5694 8.81949 33.5416 9.79171C34.5138 10.7639 34.9999 11.9445 34.9999 13.3334V18C35.4999 18.4723 35.9027 19.0139 36.2083 19.625C36.5138 20.2362 36.6666 20.9167 36.6666 21.6667V31.6667H33.3333V28.3334H6.66659V31.6667H3.33325ZM21.6666 16.6667H31.6666V13.3334C31.6666 12.8612 31.5066 12.4656 31.1866 12.1467C30.8666 11.8278 30.471 11.6678 29.9999 11.6667H23.3333C22.861 11.6667 22.4655 11.8267 22.1466 12.1467C21.8277 12.4667 21.6677 12.8623 21.6666 13.3334V16.6667ZM8.33325 16.6667H18.3333V13.3334C18.3333 12.8612 18.1733 12.4656 17.8533 12.1467C17.5333 11.8278 17.1377 11.6678 16.6666 11.6667H9.99992C9.5277 11.6667 9.13214 11.8267 8.81325 12.1467C8.49436 12.4667 8.33436 12.8623 8.33325 13.3334V16.6667Z" fill="#2C2C2C"></path></svg>