<svg xmlns="http://www.w3.org/2000/svg" width="41" height="41" viewBox="0 0 41 41" fill="none"><path d="M20.6667 33.3333C19.6667 33.3333 18.875 33.6111 18.2917 34.1667C17.7083 34.7222 16.6389 35 15.0833 35C13.5278 35 12.4583 34.7222 11.875 34.1667C11.2917 33.6111 10.5 33.3333 9.50001 33.3333C8.69445 33.3333 8.08334 33.5211 7.66667 33.8967C7.25001 34.2722 6.59723 34.5706 5.70834 34.7917C5.26389 34.9028 4.86834 34.8056 4.52167 34.5C4.17501 34.1945 4.00112 33.8056 4.00001 33.3333C3.99889 32.8611 4.16556 32.4517 4.50001 32.105C4.83445 31.7583 5.20945 31.4733 5.62501 31.25C6.09723 31 6.59723 30.7289 7.12501 30.4367C7.65278 30.1444 8.44445 29.9989 9.50001 30C11.0556 30 12.125 30.2778 12.7083 30.8333C13.2917 31.3889 14.0833 31.6667 15.0833 31.6667C16.0833 31.6667 16.875 31.3889 17.4583 30.8333C18.0417 30.2778 19.1111 30 20.6667 30C22.2222 30 23.2917 30.2778 23.875 30.8333C24.4583 31.3889 25.25 31.6667 26.25 31.6667C27.25 31.6667 28.0417 31.3889 28.625 30.8333C29.2083 30.2778 30.2778 30 31.8333 30C32.8889 30 33.6806 30.1461 34.2083 30.4383C34.7361 30.7306 35.2361 31.0011 35.7083 31.25C36.125 31.4722 36.5 31.7572 36.8333 32.105C37.1667 32.4528 37.3333 32.8622 37.3333 33.3333C37.3333 33.8045 37.16 34.1933 36.8133 34.5C36.4667 34.8067 36.0706 34.9039 35.625 34.7917C34.7361 34.5695 34.0833 34.2711 33.6667 33.8967C33.25 33.5222 32.6389 33.3345 31.8333 33.3333C30.8333 33.3333 30.0417 33.6111 29.4583 34.1667C28.875 34.7222 27.8056 35 26.25 35C24.6944 35 23.625 34.7222 23.0417 34.1667C22.4583 33.6111 21.6667 33.3333 20.6667 33.3333ZM20.6667 25.8333C19.6111 25.8333 18.8261 26.1111 18.3117 26.6667C17.7972 27.2222 16.7211 27.5 15.0833 27.5C13.4456 27.5 12.355 27.2222 11.8117 26.6667C11.2683 26.1111 10.4978 25.8333 9.50001 25.8333C8.69445 25.8333 8.08334 26.0211 7.66667 26.3967C7.25001 26.7722 6.59723 27.0706 5.70834 27.2917C5.26389 27.4028 4.86834 27.3056 4.52167 27C4.17501 26.6944 4.00112 26.3056 4.00001 25.8333C3.99889 25.3611 4.16556 24.9517 4.50001 24.605C4.83445 24.2583 5.20945 23.9733 5.62501 23.75C6.09723 23.5 6.59723 23.2289 7.12501 22.9367C7.65278 22.6444 8.44445 22.4989 9.50001 22.5C11.0556 22.5 12.1322 22.7778 12.73 23.3333C13.3278 23.8889 14.1122 24.1667 15.0833 24.1667C16.0833 24.1667 16.875 23.8889 17.4583 23.3333C18.0417 22.7778 19.1111 22.5 20.6667 22.5C22.2222 22.5 23.2917 22.7778 23.875 23.3333C24.4583 23.8889 25.25 24.1667 26.25 24.1667C27.25 24.1667 28.0417 23.8889 28.625 23.3333C29.2083 22.7778 30.2778 22.5 31.8333 22.5C32.8889 22.5 33.6806 22.6461 34.2083 22.9383C34.7361 23.2306 35.2361 23.5011 35.7083 23.75C36.125 23.9722 36.5 24.2572 36.8333 24.605C37.1667 24.9528 37.3333 25.3622 37.3333 25.8333C37.3333 26.3044 37.16 26.6933 36.8133 27C36.4667 27.3067 36.0706 27.4039 35.625 27.2917C34.7361 27.0694 34.0833 26.7711 33.6667 26.3967C33.25 26.0222 32.6389 25.8344 31.8333 25.8333C30.8333 25.8333 30.0622 26.1111 29.52 26.6667C28.9778 27.2222 27.8878 27.5 26.25 27.5C24.6667 27.5 23.5906 27.2222 23.0217 26.6667C22.4528 26.1111 21.6678 25.8333 20.6667 25.8333ZM12.1667 19L17.7083 13.4583L16.0417 11.7917C15.3472 11.0972 14.6322 10.5483 13.8967 10.145C13.1611 9.74167 12.3206 9.47111 11.375 9.33334C10.8195 9.22222 10.3406 8.95834 9.93834 8.54167C9.53612 8.125 9.33445 7.63889 9.33334 7.08334C9.33334 6.5 9.54167 6.00667 9.95834 5.60334C10.375 5.2 10.8611 5.02667 11.4167 5.08334C12.9167 5.22222 14.2083 5.535 15.2917 6.02167C16.375 6.50834 17.4444 7.27889 18.5 8.33334L29.1667 19C28.6944 19.3056 28.2361 19.5489 27.7917 19.73C27.3472 19.9111 26.8333 20.0011 26.25 20C25.25 20 24.4583 19.7222 23.875 19.1667C23.2917 18.6111 22.2222 18.3333 20.6667 18.3333C19.1111 18.3333 18.0417 18.6111 17.4583 19.1667C16.875 19.7222 16.0833 20 15.0833 20C14.5 20 13.9861 19.91 13.5417 19.73C13.0972 19.55 12.6389 19.3067 12.1667 19ZM28.5 5C29.6667 5 30.6528 5.41 31.4583 6.23C32.2639 7.05 32.6667 8.02889 32.6667 9.16667C32.6667 10.3333 32.2639 11.3194 31.4583 12.125C30.6528 12.9306 29.6667 13.3333 28.5 13.3333C27.3333 13.3333 26.3472 12.9306 25.5417 12.125C24.7361 11.3194 24.3333 10.3333 24.3333 9.16667C24.3333 8.02778 24.7361 7.04834 25.5417 6.22834C26.3472 5.40834 27.3333 4.99889 28.5 5Z" fill="#2C2C2C"></path></svg>